<svg xmlns="http://www.w3.org/2000/svg" viewBox="0 0 128 128"><defs><style>.cls-3{fill:#f2a78c}.cls-4{fill:#70708e}.cls-5{fill:#dfd6cb}.cls-6{fill:none;stroke:#fff;stroke-linecap:round;stroke-linejoin:round;stroke-width:2px}.cls-8{fill:#4d5db1;opacity:.06;mix-blend-mode:multiply}</style></defs><g style="isolation:isolate"><g id="icons" style="mix-blend-mode:darken"><path class="cls-3" d="M116 12a97.63 97.63 0 01-7.77 35l-13.6-13.6L81 19.77A97.63 97.63 0 01116 12z"/><path class="cls-4" d="M54.87 90.49l-3.69 7.7-7.16-7.16-3.52-3.52-10.69-10.69 7.7-3.69 17.36 17.36z"/><path class="cls-5" d="M108.23 47a67.7 67.7 0 01-14 21c-13.19 13.19-28.1 21.35-39.4 22.57L37.51 73.13c1.22-11.3 9.38-26.21 22.57-39.4a67.7 67.7 0 0121-14l13.6 13.6z"/><path class="cls-5" d="M81 19.77a67.7 67.7 0 00-21 14c-13.19 13.19-21.35 28.1-22.57 39.4l17.44 17.32c11.3-1.22 26.21-9.38 39.4-22.57a67.7 67.7 0 0014-21A97.63 97.63 0 00116 12a97.63 97.63 0 00-35 7.77z"/><path class="cls-6" d="M77.94 27.94a61.65 61.65 0 00-9.6 6.4M83.32 25.32l.11-.05c2.4-1.05 4.8-1.94 7.14-2.7"/><circle class="cls-4" cx="80.38" cy="47.62" r="9.07" transform="rotate(-45 80.386 47.623)"/><path d="M47.4 97.25C40 102 12.87 115.57 12 116s14-27.93 18.75-35.4z" fill="#f4dd7d"/><path class="cls-3" d="M80.38 96l-18.52 18.58v-23.5c8-2.33 16.72-7.19 25.11-13.93.18 5.45-.81 13.13-6.59 18.85zM50.85 41c-5.45-.18-13.13.81-18.9 6.59L13.42 66.14h23.5c2.33-7.99 7.19-16.72 13.93-25.14z"/><path class="cls-8" d="M47.4 97.25C40 102 12.87 115.57 12 116l30.34-23.47.18-.16zM80.38 96l-18.52 18.58v-23.5c8-2.33 16.72-7.19 25.11-13.93.18 5.45-.81 13.13-6.59 18.85z"/><path class="cls-8" d="M116 12a97.63 97.63 0 01-7.77 35 67.7 67.7 0 01-14 21c-13.19 13.19-28.1 21.35-39.4 22.57l-3.69 7.7L44 91l6-5.37S67 84 87 64c9.5-9.5 16-22 16-22l.08-.18zM47.4 97.25C40 102 12.87 115.57 12 116l27.08-27.07z"/><path class="cls-8" d="M87 77.15c.18 5.45-.81 13.13-6.59 18.9l-18.55 18.53v-23.5c7.99-2.33 16.72-7.19 25.14-13.93z"/><path class="cls-8" d="M116 12a97.63 97.63 0 01-7.77 35 67.7 67.7 0 01-14 21c-13.19 13.19-28.1 21.35-39.4 22.57l-3.69 7.7L44 91l-3.5-3.49 5.69-5.7L74 54l12.79-12.79 7.84-7.84z"/><path class="cls-6" d="M27 60l4-4"/></g></g></svg>